<?xml version="1.0" encoding="UTF-8"?>
<svg width="251px" height="42px" viewBox="0 0 251 42" version="1.1" xmlns="http://www.w3.org/2000/svg" xmlns:xlink="http://www.w3.org/1999/xlink">
    <!-- Generator: Sketch 50.2 (55047) - http://www.bohemiancoding.com/sketch -->
    <title>HA Logo</title>
    <desc>Created with Sketch.</desc>
    <defs>
        <polygon id="path-1" points="0.525657895 0.48165 24.9513158 0.48165 24.9513158 26 0.525657895 26"></polygon>
        <polygon id="path-3" points="0 0.253515789 11.5242316 0.253515789 11.5242316 11.7766737 0 11.7766737"></polygon>
        <polygon id="path-5" points="0.203078571 0.101574 17.7055714 0.101574 17.7055714 32.943174 0.203078571 32.943174"></polygon>
    </defs>
    <g id="Symbols" stroke="none" stroke-width="1" fill="none" fill-rule="evenodd">
        <g id="Content" transform="translate(-964.000000, -7552.000000)">
            <g id="Group-28" transform="translate(6.000000, 0.000000)">
                <g transform="translate(-164.000000, 120.000000)" id="HA-Logo">
                    <g transform="translate(1122.000000, 7432.000000)">
                        <g id="Group-3" transform="translate(37.000000, 15.000000)">
                            <mask id="mask-2" fill="white">
                                <use xlink:href="#path-1"></use>
                            </mask>
                            <g id="Clip-2"></g>
                            <path d="M24.9513158,25.44555 L16.1368421,25.44555 L16.1368421,23.2817 C14.7875,24.83455 12.2605263,26.00065 9.39736842,26.00065 C3.83947368,26.00065 0.525657895,22.39445 0.525657895,16.8467 L0.525657895,0.48165 L9.28552632,0.48165 L9.28552632,14.7927 C9.28552632,16.9013 10.2953947,18.4002 12.5427632,18.4002 C14.1703947,18.4002 15.6861842,17.34655 16.1368421,15.6273 L16.1368421,0.48165 L24.9513158,0.48165 L24.9513158,25.44555 Z" id="Fill-1" fill="#FFFFFF" mask="url(#mask-2)"></path>
                        </g>
                        <path d="M96.6038761,15 C101.795313,15 105,18.6177886 105,24.3255903 L105,41 L96.327543,41 L96.327543,26.4738799 C96.327543,24.3255903 95.4441833,22.8004636 93.5111463,22.8004636 C92.0201127,22.8004636 90.7491102,23.760704 90.3071067,25.5129773 L90.3071067,41 L81.691599,41 L81.691599,26.4738799 C81.691599,24.3255903 80.8075921,22.8004636 78.8745551,22.8004636 C77.3828744,22.8004636 76.0575112,23.760704 75.6705155,25.5129773 L75.6705155,41 L67,41 L67,15.5655485 L75.6705155,15.5655485 L75.6705155,17.656886 C76.9415181,16.0741448 79.3165585,15 82.0785947,15 C85.225685,15 87.4357022,16.2443392 88.927383,18.0529024 C90.4177694,16.469499 92.9584802,15 96.6038761,15" id="Fill-4" fill="#FFFFFF"></path>
                        <path d="M124.43294,40.5570212 L124.43294,39.281346 C123.582018,40.1127433 121.028586,41 118.304969,41 C113.255277,41 109,38.2278098 109,32.9607784 C109,28.1386745 113.255277,25.0339254 118.816187,25.0339254 C120.914243,25.0339254 123.412498,25.6983937 124.43294,26.4200205 L124.43294,24.813735 C124.43294,23.2048515 123.46834,21.8187564 121.313113,21.8187564 C119.66711,21.8187564 118.70251,22.5397337 118.304969,23.6484799 L109.908094,23.6484799 C110.644673,18.8250768 115.014958,15 121.595646,15 C128.858401,15 133,18.7705164 133,25.2560644 L133,40.5570212 L124.43294,40.5570212 Z M124.43294,32.1300307 C123.865215,31.0764945 122.333555,30.4113768 120.687552,30.4113768 C118.929201,30.4113768 117.171514,31.131055 117.171514,32.7951485 C117.171514,34.5138025 118.929201,35.2354293 120.687552,35.2354293 C122.333555,35.2354293 123.865215,34.569662 124.43294,33.5713358 L124.43294,32.1300307 Z" id="Fill-6" fill="#FFFFFF"></path>
                        <path d="M137,15.5655629 L145.622265,15.5655629 L145.622265,17.7688742 C146.993565,16.1874172 149.412484,15 152.26834,15 C157.761261,15 161,18.6741722 161,24.3258278 L161,41 L152.432432,41 L152.432432,26.4728477 C152.432432,24.3834437 151.388674,22.8562914 149.19112,22.8562914 C147.489704,22.8562914 146.061133,23.8735099 145.622265,25.6258278 L145.622265,41 L137,41 L137,15.5655629 Z" id="Fill-8" fill="#FFFFFF"></path>
                        <polygon id="Fill-10" fill="#FFFFFF" points="32 16 32 41 23.0710124 41 23.0710124 23.6674218 9.92833787 23.6674218 9.92833787 41 1 41 1 16"></polygon>
                        <g id="Group-14">
                            <mask id="mask-4" fill="white">
                                <use xlink:href="#path-3"></use>
                            </mask>
                            <g id="Clip-13"></g>
                            <path d="M5.76233684,0.253515789 C2.57981053,0.253515789 -0.000189473684,2.83288421 -0.000189473684,6.01541053 C-0.000189473684,9.19730526 2.57981053,11.7766737 5.76233684,11.7766737 C8.94486316,11.7766737 11.5242316,9.19730526 11.5242316,6.01541053 C11.5242316,2.83288421 8.94486316,0.253515789 5.76233684,0.253515789" id="Fill-12" fill="#FFFFFF" mask="url(#mask-4)"></path>
                        </g>
                        <path d="M27.9996712,0 C24.6871267,0 22,2.68610578 22,6.00032886 C22,9.31389422 24.6871267,12 27.9996712,12 C31.313531,12 34,9.31389422 34,6.00032886 C34,2.68610578 31.313531,0 27.9996712,0" id="Fill-15" fill="#FFFFFF"></path>
                        <path d="M193.040858,7 L206,41 L196.972137,41 L194.535769,34.4098117 L182.18653,34.4098117 L179.805962,41 L171,41 L183.957844,7 L193.040858,7 Z M184.89995,27.1001393 L191.878149,27.1001393 L188.388725,17.5210754 L184.89995,27.1001393 Z" id="Fill-17" fill="#FFFFFF"></path>
                        <path d="M219.494343,15 C226.155886,15 230.284121,18.9834476 231,24.7913997 L222.632602,24.7913997 C222.412678,23.2974448 221.256308,22.1910757 219.494343,22.1910757 C217.072609,22.1910757 215.531857,24.4595538 215.531857,27.9990278 C215.531857,31.5397981 217.072609,33.7531846 219.494343,33.7531846 C221.256308,33.7531846 222.412678,32.7006107 222.632602,31.2086003 L231,31.2086003 C230.284121,36.9608127 226.155886,41 219.494343,41 C212.064037,41 207,35.6898168 207,27.9990278 C207,20.3101832 212.064037,15 219.494343,15" id="Fill-19" fill="#FFFFFF"></path>
                        <g id="Group-23" transform="translate(233.000000, 9.000000)">
                            <mask id="mask-6" fill="white">
                                <use xlink:href="#path-5"></use>
                            </mask>
                            <g id="Clip-22"></g>
                            <path d="M3.82493571,13.959594 L0.203078571,13.959594 L0.203078571,7.086354 L3.82493571,7.086354 L3.82493571,0.101574 L12.3292929,0.101574 L12.3292929,7.086354 L17.4862929,7.086354 L17.4862929,13.959594 L12.3292929,13.959594 L12.3292929,22.410234 C12.3292929,24.379674 13.2620786,25.226454 14.9624357,25.226454 C15.8952214,25.226454 16.9379357,25.000734 17.70615,24.663474 L17.70615,32.155134 C16.7193643,32.605914 14.8525071,32.943174 12.9322929,32.943174 C7.11636429,32.943174 3.82493571,30.126954 3.82493571,23.705154 L3.82493571,13.959594 Z" id="Fill-21" fill="#FFFFFF" mask="url(#mask-6)"></path>
                        </g>
                    </g>
                </g>
            </g>
        </g>
    </g>
</svg>